PathFileType	4	(X/Y/Z)	C:/Users/beibeiliu/ov580/test_trc/User2\sequence.10_training_dense_left.trc
DataRate	CameraRate	NumFrames	NumMarkers	Units	OrigDataRate	OrigDataStartFrame	OrigNumFrames
120	120	24	19	mm	120	424	484
Frame#	Time	ThumbCMC			ThumbMCP			ThumbIP			ThumbTip			IndexMCP			IndexPIP			IndexTip			MiddleMCP			MiddlePIP			MiddleTip			RingMCP			RingPIP			RingTip			PinkyMCP			PinkyPIP			PinkyTip			BackHand1			BackHand2			BackHand3	
		X0	Y0	Z0	X1	Y1	Z1	X2	Y2	Z2	X3	Y3	Z3	X4	Y4	Z4	X5	Y5	Z5	X6	Y6	Z6	X7	Y7	Z7	X8	Y8	Z8	X9	Y9	Z9	X10	Y10	Z10	X11	Y11	Z11	X12	Y12	Z12	X13	Y13	Z13	X14	Y14	Z14	X15	Y15	Z15	X16	Y16	Z16	X17	Y17	Z17	X18	Y18	Z18	
423	3.525	-151.728	-26.0345	144.471	-133.347	-43.0867	114.32	-132.645	-52.9095	79.5204	-152.27	-49.7998	53.8565	-140.309	21.273	81.2119	-122.486	26.5043	54.5774	-112.924	25.8559	31.3655	-162.956	24.7744	61.6439	-148.671	19.6188	29.2452	-143.395	0.914716	3.94231	-184.936	0.196725	56.7094	-173.716	-27.9246	39.3024	-168.06	-54.0944	65.5091	-204.607	-16.5785	58.3018	-188.647	-42.8114	55.1333	-188.195	-54.4098	89.4277	-205.074	9.48061	113.712	-215.965	2.0864	149.418	-176.418	11.2688	140.366	
424	3.53333	-152.037	-28.0232	148.316	-136.825	-40.066	112.14	-133.943	-48.8792	77.6087	-152.642	-46.2605	53.7727	-139.208	24.5155	85.1342	-128.373	31.8234	56.8483	-116.326	33.6757	28.7392	-163.685	26.5621	70.2071	-153.622	24.631	33.5075	-148.058	7.16193	3.08036	-187.147	3.50589	57.6815	-176.787	-25.3262	40.9298	-168.834	-50.116	65.2176	-203.594	-10.5121	65.6177	-194.34	-40.8741	55.4563	-185.863	-51.9955	87.3479	-206.375	11.1897	117.12	-216.439	3.44205	152.813	-175.905	9.56489	143.832	
425	3.54167	-150.477	-25.9431	142.251	-136.949	-42.1638	108.802	-144.848	-46.9033	71.4048	-161.977	-47.244	50.74	-147.562	25.6128	79.4627	-140.205	33.9239	51.5429	-128.043	36.6651	22.6412	-173.05	26.5619	67.2367	-167.832	25.1894	29.1415	-165.165	9.84721	-0.00460422	-195.774	0.738975	54.6093	-185.415	-24.5558	41.0645	-178.481	-50.1189	61.2219	-211.74	-12.8747	68.0648	-200.036	-46.2026	60.9658	-191.079	-54.1176	91.6313	-209.276	10.4319	123.656	-210.362	2.01733	152.965	-176.565	8.94989	141.927	
426	3.55	-153.478	-27.2566	139.894	-147.797	-43.7988	105.042	-158.111	-50.7277	66.0374	-180.515	-51.0938	47.5979	-158.107	20.9996	74.0315	-155.057	29.4882	45.445	-152.467	33.3552	13.9531	-188.809	23.5571	62.4004	-185.104	21.1814	27.6255	-185.703	5.37425	-3.2869	-206.751	-4.0282	56.388	-203.107	-28.8587	42.5816	-191.134	-56.2996	68.1163	-224.658	-20.6726	70.6916	-211.618	-50.259	65.3535	-198.959	-56.9848	95.1649	-212.637	9.73412	124.884	-210.818	4.93187	154.187	-176.226	10.263	142.721	
427	3.55833	-158.328	-27.3717	130.903	-153.835	-50.2524	100.748	-172.29	-60.4327	70.6134	-195.91	-61.9222	51.7121	-170.013	13.6927	60.7319	-169.229	16.6269	34.7008	-170.73	17.0161	8.73879	-202.465	13.2995	58.2312	-206.556	6.97157	21.4917	-209.707	-11.4877	-7.48277	-222.6	-14.9845	58.2198	-219.604	-46.8663	50.3545	-203.047	-64.7644	76.6921	-239.9	-31.0746	75.8303	-225.334	-56.5247	73.3794	-205.809	-59.9817	100.559	-219.61	6.35273	119.82	-216.245	3.80709	156.193	-183.983	8.88658	137.186	
428	3.56667	-160.217	-30.0396	128.614	-162.886	-56.1917	105.11	-182.468	-74.2385	73.2262	-207.347	-78.8625	62.5248	-183.975	-1.5366	56.0633	-183.645	-4.06756	26.0818	-183.278	-7.24102	3.90258	-215.054	-1.38301	52.8242	-222.115	-13.1134	22.4571	-230.955	-39.313	-1.22551	-234.667	-28.8949	64.976	-231.855	-59.9509	58.3618	-214.308	-76.6705	84.5669	-247.508	-40.5561	84.825	-235.456	-69.5587	85.4581	-210.875	-69.9896	110.214	-221.839	3.51972	122.367	-216.087	7.16967	153.959	-183.853	8.54384	127.231	
429	3.575	-164.014	-29.2347	135.352	-165.94	-63.6634	113.366	-184.676	-88.2563	86.9251	-207.114	-96.7044	78.9338	-186.763	-17.9113	52.5215	-186.09	-26.6765	26.174	-192.077	-36.0397	-0.439723	-218.483	-19.0975	53.0873	-224.008	-38.1416	28.0647	-232.651	-72.2144	9.03764	-239.485	-46.1789	69.103	-232.695	-78.307	70.5559	-215.455	-87.8205	97.3888	-248.71	-48.6206	93.6074	-233.635	-83.8574	101.124	-213.811	-76.9414	122.786	-229.823	-1.56229	118.989	-218.909	6.70755	149.612	-190.173	6.1249	128.623	
430	3.58333	-165.031	-31.654	135.712	-161.313	-70.0827	119.756	-179.481	-99.072	100.691	-204.197	-109.46	92.5291	-185.491	-32.1949	57.5652	-187.089	-45.4947	32.2417	-190.295	-61.9038	7.92857	-216.428	-38.4007	55.8949	-222.404	-68.0496	33.3927	-225.253	-98.8699	27.9458	-236.742	-57.2882	76.4985	-225.374	-90.6646	79.2335	-210.503	-97.2433	111.793	-244.594	-62.7467	96.801	-228.612	-92.5429	109.946	-206.432	-84.0467	129.574	-227.651	-9.46254	114.944	-222.334	8.35144	148.228	-190.703	2.9536	124.352	
431	3.59167	-160.047	-30.7125	137.353	-158.288	-68.9285	129.967	-168.522	-101.824	115.459	-194.589	-115.665	104.374	-179.153	-41.474	60.5915	-178.897	-61.2519	35.8688	-178.597	-79.1793	17.0393	-210.201	-51.5861	60.2003	-211.258	-85.4503	43.2052	-205.781	-120.367	44.2195	-225.172	-72.3294	77.9468	-217.748	-103.261	89.263	-196.363	-102.198	119.304	-237.588	-72.5547	100.557	-221.578	-97.397	113.853	-200.353	-85.6867	140.408	-227.272	-13.603	116.721	-225.262	1.54598	146.169	-193.382	-0.902175	121.217	
432	3.6	-156.972	-29.4046	139.765	-149.316	-66.9287	134.978	-161.218	-98.1403	121.374	-180.335	-118.455	109.328	-176.012	-44.1569	64.4755	-172.199	-62.3032	41.9423	-169.175	-85.0336	20.8853	-199.014	-56.8468	61.6394	-195.722	-88.4959	47.6442	-188.522	-126.848	52.0729	-217.442	-77.1439	82.0348	-203.943	-104.719	89.7296	-187.701	-105.298	122.237	-231.851	-81.1278	104.136	-211.563	-103.435	120.618	-192.511	-83.0045	141.325	-224.518	-20.3493	117.866	-223.869	-0.68815	142.867	-191.797	-1.51628	123.971	
433	3.60833	-159.916	-23.2088	145.975	-144.803	-60.4041	135.246	-152.64	-91.222	120.016	-168.92	-111.345	108.748	-171.263	-37.2902	62.9778	-164.36	-52.7937	41.3496	-159.612	-72.4809	20.5821	-194.162	-51.6748	60.2271	-188.467	-80.7177	45.2496	-178.755	-118.588	46.678	-208.681	-75.9363	79.1667	-194.427	-100.844	86.9218	-177.204	-100.549	118.701	-222.492	-83.1306	101.487	-201.358	-101.301	119.404	-185.949	-80.6843	142.897	-225.483	-21.1762	115.184	-224.48	-2.3708	147.024	-193.481	0.225085	129.213	
434	3.61667	-158.555	-20.9836	145.224	-144.781	-56.1786	128.541	-147.04	-85.8258	111.406	-166.027	-101.284	98.2052	-167.687	-21.1338	62.8022	-162.12	-33.4889	37.8151	-158.601	-47.3698	17.8324	-195.292	-36.8401	59.7459	-187.1	-64.8579	36.5403	-175.303	-97.6679	32.8933	-208.882	-62.7021	73.9222	-191.904	-92.011	79.7322	-178.386	-95.3917	110.239	-221.846	-72.853	96.9334	-195.461	-90.7312	108.161	-186.36	-76.883	136.375	-222.511	-15.8135	118.98	-228.5	-3.8638	151.248	-191.929	6.29739	131.9	
435	3.625	-155.888	-20.8511	145.928	-147.145	-52.1311	125.454	-153.772	-76.1806	99.4607	-172.115	-90.7106	83.9881	-168.936	-4.09221	67.323	-164.424	-10.5678	40.3183	-159.057	-22.3455	11.8289	-198.59	-17.0706	59.2411	-193.194	-37.7895	31.6028	-182.405	-67.7079	17.4183	-208.934	-47.664	66.269	-193.955	-75.0145	66.0762	-181.778	-86.4299	96.4329	-223.339	-62.7277	88.3116	-197.08	-82.9117	100.697	-187.576	-69.2608	126.058	-223.228	-8.96386	118.698	-226.814	-0.824614	154.826	-190.121	8.79715	136.799	
436	3.63333	-158.853	-22.0635	142.222	-152.056	-51.7201	120.021	-160.572	-74.5982	86.7333	-182.851	-82.0436	71.8623	-173.581	5.39085	68.0047	-167.078	3.72419	41.289	-168.562	-2.68187	11.626	-200.151	-1.18584	58.6243	-199.982	-16.3202	25.6721	-191.462	-43.0921	3.14811	-217.914	-29.2473	62.8579	-205.764	-59.9033	53.4094	-187.611	-75.5068	77.1285	-229.775	-52.9268	81.0713	-206.195	-75.0006	90.0249	-194.929	-66.0561	116.463	-224.127	-2.53016	119.02	-225.49	1.11	152.898	-191.08	11.487	137.191	
437	3.64167	-166.787	-24.3733	138.566	-162.425	-52.8035	114.412	-174.484	-70.076	82.8478	-193.496	-78.5668	63.5357	-174.462	11.75	69.0597	-171.536	11.2894	39.5592	-169.254	8.45519	10.5598	-208.673	7.92139	60.103	-205.404	2.57432	26.318	-204.227	-19.6381	-4.89294	-225.942	-13.4313	63.7631	-218.372	-39.3977	40.776	-202.35	-68.3256	53.718	-236.19	-37.0913	80.0342	-217.616	-67.8209	80.1285	-204.336	-62.6977	105.378	-231.456	0.755156	119.614	-230.398	1.56319	157.695	-191.533	11.998	138.516	
438	3.65	-172.717	-25.841	138.066	-171.574	-52.0248	108.12	-182.659	-69.411	76.4377	-206.706	-72.5213	62.3243	-182.716	13.3673	65.4022	-174.858	16.3137	40.5401	-178.921	16.2365	12.2567	-213.776	15.2618	58.5894	-214.214	11.9885	23.9912	-216.686	0.946151	-3.03306	-229.191	-2.76028	61.933	-231.861	-21.7984	35.1785	-218.468	-52.2811	31.7815	-245.919	-29.33	77.4916	-227.518	-58.5639	71.7187	-214.978	-58.737	100.397	-231.02	5.1201	124.078	-229.138	3.57712	153.4	-200.13	11.2896	138.808	
439	3.65833	-174.325	-27.7167	131.854	-178.662	-52.0057	104.244	-194.18	-66.2085	73.6061	-219.007	-67.4599	60.5583	-191.201	14.7055	66.9111	-183.555	19.6759	36.4958	-186.757	22.0425	9.4565	-217.451	18.1752	62.2734	-221.047	19.2729	30.0308	-230.236	12.8226	-4.02202	-238.727	2.2979	65.9354	-239.738	-11.5612	34.713	-232.773	-40.4403	17.4703	-254.413	-22.3746	75.547	-241.471	-50.4116	64.5309	-229.731	-61.0243	94.1785	-235.394	6.45644	123.447	-231.808	2.85195	158.636	-203.355	11.2821	135.412	
440	3.66667	-182.542	-27.9219	131.283	-187.074	-51.6386	98.6325	-208.812	-62.3149	71.2219	-233.567	-65.4807	56.949	-199.137	15.9883	62.6744	-195.371	20.6293	36.6538	-196.763	23.7196	11.5842	-226.827	19.3409	62.8693	-233.9	22.8243	29.301	-243.955	20.6674	-0.1779	-251.995	3.83943	63.369	-254.827	-6.55524	36.603	-248.821	-26.4324	15.1097	-261.864	-19.6384	77.702	-255.276	-47.1862	64.2359	-237.918	-59.5863	93.4052	-244.771	5.7817	125.93	-236.926	5.92652	157.216	-207.708	11.049	134.761	
441	3.675	-183.762	-27.9	126.33	-194.291	-52.5357	94.9773	-216.461	-67.3137	68.3666	-244.38	-65.7864	63.9192	-205.447	12.9183	62.9446	-209.605	17.8701	31.432	-209.676	21.3058	10.1229	-237.935	18.7623	59.6421	-246.659	21.1892	33.7167	-257.027	23.1836	3.84946	-261.14	1.96279	71.3416	-265.721	-5.3886	42.2693	-269.05	-22.6628	17.335	-271.082	-20.4695	85.927	-264.6	-53.728	71.5454	-245.974	-61.2381	97.7148	-244.161	5.77391	127.537	-239.053	5.96038	161.078	-209.999	9.33283	136.134	
442	3.68333	-186.412	-29.3133	123.66	-197.063	-58.59	96.2866	-224.957	-68.6083	75.6329	-256.844	-68.4425	68.0357	-215.386	10.2486	56.3307	-218.572	11.7532	31.2772	-223.405	16.9299	4.06016	-244.442	13.713	63.5099	-257.617	17.2953	35.4017	-271.632	19.2037	1.96439	-268.672	-1.33809	70.701	-282.496	-10.5081	43.474	-287.559	-26.4734	17.4076	-281.945	-28.2855	86.8885	-272.582	-57.9986	78.6058	-250.589	-64.1292	105.06	-251.27	5.4309	125.908	-240.389	6.07361	159.428	-213.178	10.3312	132.521	
443	3.69167	-189.849	-31.5777	125.097	-202.922	-60.63	94.4021	-231.038	-75.1631	75.8771	-259.137	-75.0914	74.8714	-219.814	5.21106	54.6705	-224.014	6.19481	28.8239	-230.051	7.81432	5.23758	-252.743	10.2993	61.9893	-263.413	12.3164	35.3317	-273.646	14.1276	5.67838	-275.587	-5.60967	70.8043	-283.681	-12.3742	49.685	-293.409	-25.8826	23.3398	-281.688	-30.4864	91.8258	-272.232	-61.365	82.5793	-251.721	-68.297	106.436	-253.723	6.24981	125.335	-240.612	5.87172	161.094	-212.275	8.5108	127.635	
444	3.7	-190.374	-32.5843	122.7	-202.337	-62.3414	98.3286	-228.177	-78.602	82.4749	-256.348	-78.4199	79.9403	-217.605	-0.880947	53.9785	-217.086	-1.11046	30.0784	-221.137	2.52453	-1.44465	-246.268	6.66854	59.4194	-258.816	7.50598	32.0496	-273.588	9.64893	3.90167	-272.244	-7.54238	71.6627	-286.38	-15.744	45.0923	-294.88	-26.638	24.6966	-284.084	-34.063	92.9729	-273.248	-67.4349	86.81	-248.97	-71.7164	105.333	-250.265	5.02048	123.21	-238.649	7.96735	156.718	-211.63	7.0004	130.039	
445	3.70833	-183.353	-34.9468	128.411	-192.676	-67.4179	103.352	-224.459	-82.2858	79.0104	-250.937	-78.2476	78.5912	-207.065	-5.14423	54.9891	-208.341	-5.00277	27.8474	-211.095	-3.10778	1.43447	-239.34	4.39596	59.5768	-244.528	6.00673	30.1415	-257.428	7.30046	2.31817	-259.413	-7.82603	67.8272	-274.106	-14.8378	46.6608	-281.412	-24.6947	20.4625	-272.413	-31.2853	88.9652	-269.688	-63.4753	81.7935	-247.543	-74.8641	103.309	-244.112	4.31267	124.023	-232.662	6.28389	155.334	-205.233	6.23281	127.854	
446	3.71667	-177.32	-36.6709	132.534	-187.464	-66.6763	101.76	-209.284	-82.0781	80.9869	-238.252	-77.1598	76.4354	-190.763	-5.93081	60.5378	-187.619	-6.37682	28.9708	-189.958	-3.38578	2.3149	-224.624	3.78763	56.7677	-227.892	5.74284	29.2134	-233.919	8.91728	-4.15098	-246.336	-7.47178	65.028	-255.104	-12.7989	39.8929	-261.074	-21.0131	9.09301	-264.702	-31.8641	80.7191	-258.207	-63.807	74.794	-242.048	-77.0655	102.931	-238.867	3.15584	122.828	-228.293	7.6117	155.006	-199.984	3.66248	131.446	
